<svg width="127" height="127" viewBox="0 0 127 127" fill="none" xmlns="http://www.w3.org/2000/svg">
<path d="M125 63.5C125 97.4655 97.4655 125 63.5 125C29.5345 125 2 97.4655 2 63.5C2 29.5345 29.5345 2 63.5 2C97.4655 2 125 29.5345 125 63.5Z" fill="white" stroke="black" stroke-width="4"/>
<path d="M62.0858 114.159C62.8668 114.94 64.1332 114.94 64.9142 114.159L77.6421 101.431C78.4232 100.65 78.4232 99.3838 77.6421 98.6028C76.8611 97.8217 75.5948 97.8217 74.8137 98.6028L63.5 109.916L52.1863 98.6028C51.4052 97.8217 50.1389 97.8217 49.3579 98.6028C48.5768 99.3838 48.5768 100.65 49.3579 101.431L62.0858 114.159ZM61.5 63.5V112.745H65.5V63.5H61.5Z" fill="black"/>
<path d="M93.4839 64.839C94.2233 64.0185 94.1577 62.7538 93.3371 62.0143L79.9662 49.9638C79.1456 49.2243 77.881 49.29 77.1415 50.1105C76.4021 50.931 76.4677 52.1956 77.2882 52.9351L89.1736 63.6467L78.4619 75.532C77.7224 76.3526 77.7881 77.6172 78.6086 78.3567C79.4292 79.0961 80.6938 79.0305 81.4333 78.21L93.4839 64.839ZM62.3078 67.0448L92.1019 65.4973L91.8944 61.5027L62.1003 63.0502L62.3078 67.0448Z" fill="black"/>
<ellipse cx="63.5" cy="64.7959" rx="2.59184" ry="2.59184" fill="black"/>
<path d="M0 0V-1H-1V0H0ZM127 0H128V-1H127V0ZM127 127V128H128V127H127ZM0 127H-1V128H0V127ZM0 1H127V-1H0V1ZM126 0V127H128V0H126ZM127 126H0V128H127V126ZM1 127V0H-1V127H1Z" fill="white"/>
</svg>
