<svg width="106" height="127" viewBox="0 0 106 127" fill="none" xmlns="http://www.w3.org/2000/svg">
<mask id="path-1-inside-1" fill="white">
<path fill-rule="evenodd" clip-rule="evenodd" d="M62.8012 39.745C62.637 38.2214 61.3509 37.0665 59.8185 37.0665H46.0616C44.5292 37.0665 43.2432 38.2214 43.0789 39.745L33.9603 124.321C33.7827 125.969 32.3033 127.16 30.656 126.982L2.67788 123.966C1.03057 123.788 -0.16086 122.309 0.0167447 120.662L12.9552 0.656217C12.9658 0.557749 13.0542 0.486532 13.1527 0.497148V0.497148C13.2587 0.50858 13.3512 0.425503 13.3512 0.318856V0.245341C13.3512 0.109843 13.4611 0 13.5966 0H92.8542V0C93.1208 0 93.3369 0.216114 93.3369 0.482704V4.47714L105.812 120.184C105.989 121.831 104.798 123.31 103.151 123.488L75.1726 126.505C73.5253 126.682 72.046 125.491 71.8683 123.843L62.8012 39.745Z"/>
</mask>
<path fill-rule="evenodd" clip-rule="evenodd" d="M62.8012 39.745C62.637 38.2214 61.3509 37.0665 59.8185 37.0665H46.0616C44.5292 37.0665 43.2432 38.2214 43.0789 39.745L33.9603 124.321C33.7827 125.969 32.3033 127.16 30.656 126.982L2.67788 123.966C1.03057 123.788 -0.16086 122.309 0.0167447 120.662L12.9552 0.656217C12.9658 0.557749 13.0542 0.486532 13.1527 0.497148V0.497148C13.2587 0.50858 13.3512 0.425503 13.3512 0.318856V0.245341C13.3512 0.109843 13.4611 0 13.5966 0H92.8542V0C93.1208 0 93.3369 0.216114 93.3369 0.482704V4.47714L105.812 120.184C105.989 121.831 104.798 123.31 103.151 123.488L75.1726 126.505C73.5253 126.682 72.046 125.491 71.8683 123.843L62.8012 39.745Z" fill="white"/>
<path d="M93.3369 4.47714H89.3369V4.69215L89.36 4.90591L93.3369 4.47714ZM105.812 120.184L101.835 120.613L105.812 120.184ZM103.151 123.488L102.722 119.511L103.151 123.488ZM12.9552 0.656217L16.9321 1.08499L12.9552 0.656217ZM2.67788 123.966L3.10665 119.989L2.67788 123.966ZM0.0167447 120.662L-3.96021 120.233L0.0167447 120.662ZM33.9603 124.321L29.9833 123.893L33.9603 124.321ZM30.656 126.982L30.2272 130.959L30.656 126.982ZM43.0789 39.745L39.1019 39.3162L43.0789 39.745ZM75.1726 126.505L74.7439 122.528L75.1726 126.505ZM71.8683 123.843L75.8453 123.415L71.8683 123.843ZM62.8012 39.745L58.8243 40.1737L62.8012 39.745ZM59.8185 33.0665H46.0616V41.0665H59.8185V33.0665ZM37.9372 124.75L47.0558 40.1737L39.1019 39.3162L29.9833 123.893L37.9372 124.75ZM2.2491 127.943L30.2272 130.959L31.0847 123.006L3.10665 119.989L2.2491 127.943ZM8.97822 0.227441L-3.96021 120.233L3.9937 121.09L16.9321 1.08499L8.97822 0.227441ZM17.3512 0.318856V0.245341H9.35124V0.318856H17.3512ZM13.5966 4H92.8542V-4H13.5966V4ZM89.3369 0.482704V4.47714H97.3369V0.482704H89.3369ZM89.36 4.90591L101.835 120.613L109.789 119.755L97.3139 4.04836L89.36 4.90591ZM102.722 119.511L74.7439 122.528L75.6014 130.481L103.58 127.465L102.722 119.511ZM75.8453 123.415L66.7782 39.3162L58.8243 40.1737L67.8914 124.272L75.8453 123.415ZM101.835 120.613C101.776 120.063 102.173 119.57 102.722 119.511L103.58 127.465C107.423 127.051 110.203 123.599 109.789 119.755L101.835 120.613ZM92.8542 4C90.9117 4 89.3369 2.42525 89.3369 0.482704H97.3369C97.3369 -1.99302 95.3299 -4 92.8542 -4V4ZM17.3512 0.245341C17.3512 2.31898 15.6702 4 13.5966 4V-4C11.2519 -4 9.35124 -2.0993 9.35124 0.245341H17.3512ZM12.7239 4.4741C15.1951 4.74053 17.3512 2.80434 17.3512 0.318856H9.35124C9.35124 -1.95334 11.3224 -3.72337 13.5815 -3.4798L12.7239 4.4741ZM16.9321 1.08499C16.7059 3.18294 14.8219 4.70029 12.7239 4.4741L13.5815 -3.4798C11.2866 -3.72723 9.22564 -2.06744 8.97822 0.227441L16.9321 1.08499ZM3.10665 119.989C3.65575 120.048 4.0529 120.541 3.9937 121.09L-3.96021 120.233C-4.37462 124.077 -1.59461 127.529 2.2491 127.943L3.10665 119.989ZM29.9833 123.893C30.0425 123.343 30.5356 122.946 31.0847 123.006L30.2272 130.959C34.0709 131.374 37.5228 128.594 37.9372 124.75L29.9833 123.893ZM46.0616 33.0665C42.486 33.0665 39.4852 35.7612 39.1019 39.3162L47.0558 40.1737C47.0011 40.6816 46.5724 41.0665 46.0616 41.0665V33.0665ZM74.7439 122.528C75.293 122.468 75.7861 122.866 75.8453 123.415L67.8914 124.272C68.3058 128.116 71.7577 130.896 75.6014 130.481L74.7439 122.528ZM59.8185 41.0665C59.3077 41.0665 58.8791 40.6816 58.8243 40.1737L66.7782 39.3162C66.3949 35.7612 63.3941 33.0665 59.8185 33.0665V41.0665Z" fill="black" mask="url(#path-1-inside-1)"/>
</svg>
