<svg width="127" height="127" viewBox="0 0 127 127" fill="none" xmlns="http://www.w3.org/2000/svg">
<mask id="path-1-inside-1" fill="white">
<path fill-rule="evenodd" clip-rule="evenodd" d="M54.9545 0C53.2977 0 51.9545 1.34314 51.9545 3V50.0303H3C1.34315 50.0303 0 51.3735 0 53.0303V72.0455C0 73.7023 1.34314 75.0455 3 75.0455H51.9545V124C51.9545 125.657 53.2977 127 54.9545 127H73.9697C75.6265 127 76.9697 125.657 76.9697 124V75.0455H124C125.657 75.0455 127 73.7023 127 72.0455V53.0303C127 51.3735 125.657 50.0303 124 50.0303H76.9697V3C76.9697 1.34315 75.6265 0 73.9697 0H54.9545Z"/>
</mask>
<path fill-rule="evenodd" clip-rule="evenodd" d="M54.9545 0C53.2977 0 51.9545 1.34314 51.9545 3V50.0303H3C1.34315 50.0303 0 51.3735 0 53.0303V72.0455C0 73.7023 1.34314 75.0455 3 75.0455H51.9545V124C51.9545 125.657 53.2977 127 54.9545 127H73.9697C75.6265 127 76.9697 125.657 76.9697 124V75.0455H124C125.657 75.0455 127 73.7023 127 72.0455V53.0303C127 51.3735 125.657 50.0303 124 50.0303H76.9697V3C76.9697 1.34315 75.6265 0 73.9697 0H54.9545Z" fill="white"/>
<path d="M51.9545 50.0303V54.0303H55.9545V50.0303H51.9545ZM51.9545 75.0455H55.9545V71.0455H51.9545V75.0455ZM76.9697 75.0455V71.0455H72.9697V75.0455H76.9697ZM76.9697 50.0303H72.9697V54.0303H76.9697V50.0303ZM55.9545 3C55.9545 3.55229 55.5068 4 54.9545 4V-4C51.0886 -4 47.9545 -0.865998 47.9545 3H55.9545ZM55.9545 50.0303V3H47.9545V50.0303H55.9545ZM3 54.0303H51.9545V46.0303H3V54.0303ZM4 53.0303C4 53.5826 3.55229 54.0303 3 54.0303V46.0303C-0.865997 46.0303 -4 49.1643 -4 53.0303H4ZM4 72.0455V53.0303H-4V72.0455H4ZM3 71.0455C3.55229 71.0455 4 71.4932 4 72.0455H-4C-4 75.9114 -0.865998 79.0455 3 79.0455V71.0455ZM51.9545 71.0455H3V79.0455H51.9545V71.0455ZM55.9545 124V75.0455H47.9545V124H55.9545ZM54.9545 123C55.5068 123 55.9545 123.448 55.9545 124H47.9545C47.9545 127.866 51.0886 131 54.9545 131V123ZM73.9697 123H54.9545V131H73.9697V123ZM72.9697 124C72.9697 123.448 73.4174 123 73.9697 123V131C77.8357 131 80.9697 127.866 80.9697 124H72.9697ZM72.9697 75.0455V124H80.9697V75.0455H72.9697ZM124 71.0455H76.9697V79.0455H124V71.0455ZM123 72.0455C123 71.4932 123.448 71.0455 124 71.0455V79.0455C127.866 79.0455 131 75.9114 131 72.0455H123ZM123 53.0303V72.0455H131V53.0303H123ZM124 54.0303C123.448 54.0303 123 53.5826 123 53.0303H131C131 49.1643 127.866 46.0303 124 46.0303V54.0303ZM76.9697 54.0303H124V46.0303H76.9697V54.0303ZM72.9697 3V50.0303H80.9697V3H72.9697ZM73.9697 4C73.4174 4 72.9697 3.55229 72.9697 3H80.9697C80.9697 -0.865994 77.8357 -4 73.9697 -4V4ZM54.9545 4H73.9697V-4H54.9545V4Z" fill="black" mask="url(#path-1-inside-1)"/>
</svg>
