<svg width="170" height="127" viewBox="0 0 170 127" fill="none" xmlns="http://www.w3.org/2000/svg">
<mask id="path-1-inside-1" fill="white">
<path fill-rule="evenodd" clip-rule="evenodd" d="M85.359 16C93.9194 16 100.859 9.06041 100.859 0.499996V0.499996C100.859 0.226411 101.078 0 101.351 0H129.809C129.837 0 129.859 0.0222924 129.859 0.0497914V0.0497914C129.859 0.0890762 129.902 0.112888 129.935 0.0918045L130.002 0.0497892C130.045 0.0222895 130.102 0.0350479 130.13 0.0782835L169.249 61.5824C170.138 62.9805 169.726 64.8346 168.328 65.7238L147.169 79.1813C145.771 80.0705 143.917 79.6581 143.028 78.26L135.39 66.2518C133.779 63.719 129.859 64.8602 129.859 67.8619V124C129.859 125.657 128.516 127 126.859 127H42.859C41.2021 127 39.859 125.657 39.859 124V67.8619C39.859 64.8602 35.9386 63.719 34.3276 66.2518L26.6899 78.26C25.8007 79.6581 23.9465 80.0705 22.5485 79.1813L1.39033 65.7238C-0.0076968 64.8346 -0.420178 62.9805 0.469027 61.5824L39.5883 0.0782829C39.6158 0.0350466 39.6732 0.0222899 39.7164 0.0497901L39.7825 0.0918061C39.8156 0.11289 39.859 0.0890777 39.859 0.0497922V0.0497922C39.859 0.0222927 39.8813 0 39.9088 0H69.3668C69.6404 0 69.859 0.226411 69.859 0.499996V0.499996C69.859 9.06041 76.7986 16 85.359 16Z"/>
</mask>
<path fill-rule="evenodd" clip-rule="evenodd" d="M85.359 16C93.9194 16 100.859 9.06041 100.859 0.499996V0.499996C100.859 0.226411 101.078 0 101.351 0H129.809C129.837 0 129.859 0.0222924 129.859 0.0497914V0.0497914C129.859 0.0890762 129.902 0.112888 129.935 0.0918045L130.002 0.0497892C130.045 0.0222895 130.102 0.0350479 130.13 0.0782835L169.249 61.5824C170.138 62.9805 169.726 64.8346 168.328 65.7238L147.169 79.1813C145.771 80.0705 143.917 79.6581 143.028 78.26L135.39 66.2518C133.779 63.719 129.859 64.8602 129.859 67.8619V124C129.859 125.657 128.516 127 126.859 127H42.859C41.2021 127 39.859 125.657 39.859 124V67.8619C39.859 64.8602 35.9386 63.719 34.3276 66.2518L26.6899 78.26C25.8007 79.6581 23.9465 80.0705 22.5485 79.1813L1.39033 65.7238C-0.0076968 64.8346 -0.420178 62.9805 0.469027 61.5824L39.5883 0.0782829C39.6158 0.0350466 39.6732 0.0222899 39.7164 0.0497901L39.7825 0.0918061C39.8156 0.11289 39.859 0.0890777 39.859 0.0497922V0.0497922C39.859 0.0222927 39.8813 0 39.9088 0H69.3668C69.6404 0 69.859 0.226411 69.859 0.499996V0.499996C69.859 9.06041 76.7986 16 85.359 16Z" fill="white"/>
<path d="M39.7825 0.0918061L41.9292 -3.28333L39.7825 0.0918061ZM39.5883 0.0782829L42.9635 2.22502L39.5883 0.0782829ZM39.7164 0.0497901L41.8631 -3.32535L39.7164 0.0497901ZM1.39033 65.7238L3.53706 62.3487L1.39033 65.7238ZM0.469027 61.5824L-2.90611 59.4357L0.469027 61.5824ZM26.6899 78.26L23.3148 76.1133L26.6899 78.26ZM22.5485 79.1813L20.4018 82.5565L22.5485 79.1813ZM135.39 66.2518L138.765 64.1051L135.39 66.2518ZM147.169 79.1813L145.023 75.8062L147.169 79.1813ZM143.028 78.26L146.403 76.1133L143.028 78.26ZM169.249 61.5824L165.874 63.7292L169.249 61.5824ZM168.328 65.7238L170.474 69.099L168.328 65.7238ZM130.002 0.0497892L132.148 3.42492L130.002 0.0497892ZM130.13 0.0782835L133.505 -2.06845L130.13 0.0782835ZM129.935 0.0918045L132.082 3.46694L129.935 0.0918045ZM96.859 0.499996C96.859 6.85127 91.7102 12 85.359 12V20C96.1285 20 104.859 11.2695 104.859 0.499996H96.859ZM129.809 -4H101.351V4H129.809V-4ZM127.855 -3.32535L127.789 -3.28333L132.082 3.46694L132.148 3.42492L127.855 -3.32535ZM172.624 59.4357L133.505 -2.06845L126.754 2.22502L165.874 63.7292L172.624 59.4357ZM149.316 82.5565L170.474 69.099L166.181 62.3487L145.023 75.8062L149.316 82.5565ZM132.015 68.3986L139.653 80.4068L146.403 76.1133L138.765 64.1051L132.015 68.3986ZM133.859 124V67.8619H125.859V124H133.859ZM42.859 131H126.859V123H42.859V131ZM35.859 67.8619V124H43.859V67.8619H35.859ZM30.065 80.4068L37.7028 68.3986L30.9525 64.1051L23.3148 76.1133L30.065 80.4068ZM-0.756401 69.099L20.4018 82.5565L24.6952 75.8062L3.53706 62.3487L-0.756401 69.099ZM36.2132 -2.06845L-2.90611 59.4357L3.84416 63.7292L42.9635 2.22502L36.2132 -2.06845ZM41.9292 -3.28333L41.8631 -3.32535L37.5697 3.42493L37.6357 3.46694L41.9292 -3.28333ZM69.3668 -4H39.9088V4H69.3668V-4ZM85.359 12C79.0077 12 73.859 6.85127 73.859 0.499996H65.859C65.859 11.2695 74.5894 20 85.359 20V12ZM69.3668 4C67.3495 4 65.859 2.35294 65.859 0.499996H73.859C73.859 -1.90012 71.9312 -4 69.3668 -4V4ZM43.859 0.0497922C43.859 2.23134 42.0905 4 39.9088 4V-4C37.672 -4 35.859 -2.18676 35.859 0.0497922H43.859ZM37.6357 3.46694C40.3318 5.18177 43.859 3.24503 43.859 0.0497922H35.859C35.859 -3.06687 39.2994 -4.95599 41.9292 -3.28333L37.6357 3.46694ZM42.9635 2.22502C41.8054 4.04582 39.3905 4.58303 37.5697 3.42493L41.8631 -3.32535C39.9559 -4.53845 37.4263 -3.97572 36.2132 -2.06845L42.9635 2.22502ZM3.53706 62.3487C4.00307 62.6451 4.14057 63.2632 3.84416 63.7292L-2.90611 59.4357C-4.98092 62.6978 -4.01846 67.0242 -0.756401 69.099L3.53706 62.3487ZM23.3148 76.1133C23.6112 75.6473 24.2292 75.5098 24.6952 75.8062L20.4018 82.5565C23.6638 84.6313 27.9902 83.6688 30.065 80.4068L23.3148 76.1133ZM43.859 67.8619C43.859 60.8579 34.7114 58.1953 30.9525 64.1051L37.7028 68.3986C37.616 68.535 37.4264 68.7088 37.1609 68.7993C36.9283 68.8785 36.7267 68.8649 36.5795 68.822C36.4323 68.7792 36.2549 68.6824 36.1012 68.4908C35.9256 68.272 35.859 68.0236 35.859 67.8619H43.859ZM42.859 123C43.4113 123 43.859 123.448 43.859 124H35.859C35.859 127.866 38.993 131 42.859 131V123ZM125.859 124C125.859 123.448 126.307 123 126.859 123V131C130.725 131 133.859 127.866 133.859 124H125.859ZM138.765 64.1051C135.007 58.1953 125.859 60.8579 125.859 67.8619H133.859C133.859 68.0236 133.792 68.272 133.617 68.4908C133.463 68.6824 133.286 68.7792 133.138 68.822C132.991 68.8649 132.79 68.8784 132.557 68.7993C132.292 68.7088 132.102 68.535 132.015 68.3986L138.765 64.1051ZM145.023 75.8062C145.489 75.5098 146.107 75.6473 146.403 76.1133L139.653 80.4068C141.728 83.6688 146.054 84.6313 149.316 82.5565L145.023 75.8062ZM165.874 63.7292C165.577 63.2632 165.715 62.6451 166.181 62.3487L170.474 69.099C173.736 67.0242 174.699 62.6978 172.624 59.4357L165.874 63.7292ZM132.148 3.42492C130.327 4.5831 127.913 4.04571 126.754 2.22502L133.505 -2.06845C132.292 -3.97561 129.762 -4.53852 127.855 -3.32535L132.148 3.42492ZM125.859 0.0497914C125.859 3.24503 129.386 5.18177 132.082 3.46694L127.789 -3.28333C130.419 -4.95599 133.859 -3.06687 133.859 0.0497914H125.859ZM129.809 4C127.628 4 125.859 2.23143 125.859 0.0497914H133.859C133.859 -2.18685 132.046 -4 129.809 -4V4ZM104.859 0.499996C104.859 2.35295 103.368 4 101.351 4V-4C98.7867 -4 96.859 -1.90013 96.859 0.499996H104.859Z" fill="black" mask="url(#path-1-inside-1)"/>
</svg>
