<svg width="146" height="127" viewBox="0 0 146 127" fill="none" xmlns="http://www.w3.org/2000/svg">
<mask id="path-1-inside-1" fill="white">
<path fill-rule="evenodd" clip-rule="evenodd" d="M71.12 3C71.12 1.34315 69.7769 0 68.12 0H3C1.34315 0 0 1.34314 0 3V124C0 125.657 1.34314 127 2.99999 127H71.12H142.627C144.284 127 145.627 125.657 145.627 124V82.6533C145.627 71.6076 136.672 62.6533 125.627 62.6533H74.12C72.4631 62.6533 71.12 61.3102 71.12 59.6533V3Z"/>
</mask>
<path fill-rule="evenodd" clip-rule="evenodd" d="M71.12 3C71.12 1.34315 69.7769 0 68.12 0H3C1.34315 0 0 1.34314 0 3V124C0 125.657 1.34314 127 2.99999 127H71.12H142.627C144.284 127 145.627 125.657 145.627 124V82.6533C145.627 71.6076 136.672 62.6533 125.627 62.6533H74.12C72.4631 62.6533 71.12 61.3102 71.12 59.6533V3Z" fill="white"/>
<path d="M3 4H68.12V-4H3V4ZM4 124V3H-4V124H4ZM71.12 123H2.99999V131H71.12V123ZM142.627 123H71.12V131H142.627V123ZM141.627 82.6533V124H149.627V82.6533H141.627ZM125.627 66.6533C134.463 66.6533 141.627 73.8168 141.627 82.6533H149.627C149.627 69.3985 138.881 58.6533 125.627 58.6533V66.6533ZM74.12 66.6533H125.627V58.6533H74.12V66.6533ZM67.12 3V59.6533H75.12V3H67.12ZM142.627 131C146.493 131 149.627 127.866 149.627 124H141.627C141.627 123.448 142.074 123 142.627 123V131ZM74.12 58.6533C74.6723 58.6533 75.12 59.1011 75.12 59.6533H67.12C67.12 63.5193 70.254 66.6533 74.12 66.6533V58.6533ZM-4 124C-4 127.866 -0.866008 131 2.99999 131V123C3.55229 123 4 123.448 4 124H-4ZM68.12 4C67.5677 4 67.12 3.55228 67.12 3H75.12C75.12 -0.865983 71.986 -4 68.12 -4V4ZM3 -4C-0.865991 -4 -4 -0.865997 -4 3H4C4 3.55229 3.55228 4 3 4V-4Z" fill="black" mask="url(#path-1-inside-1)"/>
</svg>
